# xmcd
#
# Track frame offsets: 
#        150
#        16832
#        35774
#        57753
#        67945
#        82356
#        101082
#        113367
#        135957
#        153893
#
# Disc length: 2311 seconds
#
# Revision: 5
# Processed by: cddbd v1.5.2PL0 Copyright (c) Steve Scherf et al.
# Submitted via: ExactAudioCopy v0.95b4
#
DISCID=7409050a
DTITLE=Fatal Embrace - Dark Pounding Steel
DYEAR=2006
DGENRE=Thrash Metal
TTITLE0=Born In Blasphemy
TTITLE1=Assassination
TTITLE2=Don't Sacrifice My Soul
TTITLE3=Storming In My Mind
TTITLE4=Evil Dead (Death Cover)
TTITLE5=Beyond The Bridge Of Death
TTITLE6=Damned Will Be Thy Name
TTITLE7=And The Evil Walks Your Way
TTITLE8=In Black Years Of Pain
TTITLE9=Dark Pounding Steel
EXTD=YEAR: 2006
EXTT0=
EXTT1=
EXTT2=
EXTT3=
EXTT4=
EXTT5=
EXTT6=
EXTT7=
EXTT8=
EXTT9=
PLAYORDER=
